<?xml version="1.0" standalone="no"?>
<!DOCTYPE svg PUBLIC "-//W3C//DTD SVG 20010904//EN"
 "http://www.w3.org/TR/2001/REC-SVG-20010904/DTD/svg10.dtd">
<svg version="1.0" xmlns="http://www.w3.org/2000/svg"
 width="512.000000pt" height="512.000000pt" viewBox="0 0 512.000000 512.000000"
 preserveAspectRatio="xMidYMid meet">
<metadata>
Created by potrace 1.14, written by Peter Selinger 2001-2017
</metadata>
<g transform="translate(0.000000,512.000000) scale(0.100000,-0.100000)"
fill="#000000" stroke="none">
<path d="M0 2560 l0 -2560 2560 0 2560 0 0 2560 0 2560 -2560 0 -2560 0 0
-2560z m2426 1529 c235 -32 451 -139 630 -311 48 -46 107 -110 132 -142 51
-66 132 -203 132 -223 0 -10 -25 -13 -94 -13 l-94 0 -40 83 c-73 148 -181 258
-331 336 -306 158 -669 121 -881 -89 -63 -63 -120 -164 -146 -260 -22 -83 -23
-275 -1 -376 79 -365 399 -704 782 -827 120 -39 190 -50 300 -50 225 0 404 96
487 261 31 61 37 67 68 70 52 5 117 -7 140 -26 l20 -17 -33 -97 c-64 -184
-176 -325 -349 -439 -120 -79 -361 -200 -558 -279 -284 -114 -1261 -517 -1535
-633 -148 -63 -294 -122 -324 -132 -93 -31 -170 -4 -206 71 -26 56 -15 117 53
299 34 88 199 529 367 980 499 1334 512 1364 668 1531 211 226 501 327 813
283z"/>
</g>
</svg>
